<?xml version="1.0" encoding="UTF-8" standalone="no"?>
<!-- Created with Inkscape (http://www.inkscape.org/) -->

<svg
   width="210mm"
   height="297mm"
   viewBox="0 0 210 297"
   version="1.1"
   id="svg5"
   xmlns="http://www.w3.org/2000/svg"
   xmlns:svg="http://www.w3.org/2000/svg">
  <defs
     id="defs2" />
  <g
     id="layer1">
    <path
       style="fill:#ffe680;stroke:#ffcc00;stroke-width:1.00157"
       id="path31"
       d="m 214.99023,271.52061 c -39.81508,46.65464 -5.23577,-67.42933 -56.58218,-33.88173 -51.34642,33.54759 67.01949,47.70356 8.30152,65.42629 -58.71797,17.72272 32.05044,-59.55583 -29.28211,-59.09376 -61.332554,0.46206 30.58989,76.36426 -28.38844,59.52824 -58.978334,-16.83603 59.16085,-32.77378 7.31482,-65.54394 -51.846041,-32.77017 -15.55179,80.77985 -56.065276,34.73039 -40.513484,-46.04946 67.488116,4.41372 41.589346,-51.18438 -25.89877,-55.59811 -56.755878,59.5484 -65.941773,-1.09411 -9.185894,-60.64252 54.388381,40.19988 62.659551,-20.57415 8.271172,-60.77403 -79.940382,19.41076 -54.88223,-36.57124 25.058152,-55.98199 24.020717,63.22288 63.835792,16.56824 39.81507,-46.65463 -77.744381,-26.88966 -26.397968,-60.43725 51.346408,-33.547597 -13.973355,66.17305 44.744618,48.45032 58.71797,-17.72272 -50.865085,-64.65281 10.46746,-65.11487 61.33255,-0.46207 -47.530981,48.11374 11.44735,64.94977 58.97833,16.83603 -7.83649,-81.889143 44.00955,-49.11898 51.84604,32.77017 -65.99786,14.77867 -25.48438,60.82813 40.51349,46.04946 37.68014,-73.12626 63.57892,-17.52815 25.89877,55.5981 -63.51089,-23.24854 -54.325,37.39398 9.1859,60.64251 71.23359,-41.1463 62.96243,19.62773 -8.27117,60.77403 -40.85966,-53.89449 -65.91781,2.08751 -25.05815,55.982 82.17088,3.89732 42.35581,50.55196 z"
       transform="matrix(0.41083545,0,0,0.4320076,-9.9045022,-40.444615)" />
    <path
       style="fill:#ffb380;stroke:#ff9955;stroke-width:1.00157"
       id="path1610"
       d="m 183.84791,244.94376 c -26.66509,31.2457 48.20563,16.29313 15.62688,41.31206 -32.57874,25.01892 1.18841,-43.45722 -35.88014,-25.75852 -37.06854,17.6987 37.41101,34.49151 -2.52726,44.09647 -39.93828,9.60496 18.7613,-39.21678 -22.30121,-38.12534 -41.062512,1.09143 20.1477,46.72599 -20.24442,39.2562 -40.392119,-7.46979 33.0902,-28.1954 -4.86619,-43.89996 -37.956401,-15.70455 -0.59934,50.88113 -34.461136,27.62818 -33.861799,-23.25295 41.697506,-12.29878 13.410231,-42.08386 -28.287278,-29.78508 -21.242736,46.23845 -42.719203,11.22299 -21.476466,-35.01547 43.094935,5.7244 29.367904,-32.99109 -13.72703,-38.7155 -38.213077,33.60072 -43.590734,-7.12276 -5.377658,-40.72348 37.040855,22.7578 40.2476,-18.19385 3.206745,-40.95166 -48.57603,15.15313 -36.925032,-24.23691 11.650997,-39.39005 24.582075,35.85615 44.168121,-0.25075 19.586049,-36.10689 -50.539746,-5.91457 -23.874657,-37.16028 26.665089,-31.2457 7.872831,42.75466 40.451572,17.73573 32.578744,-25.01893 -43.764681,-25.9596 -6.696136,-43.6583 37.06854,-17.698706 -10.197697,42.26049 29.74058,32.65553 39.93827,-9.60496 -29.422306,-41.51597 11.64021,-42.60741 41.06251,-1.09143 -26.50495,34.4591 13.88717,41.9289 40.39212,7.46979 -9.99255,-49.893863 27.96385,-34.18931 37.9564,15.70455 -38.22926,20.69942 -4.36746,43.95237 33.8618,23.25295 11.16502,-49.64464 39.4523,-19.85956 28.28727,29.78508 -43.34338,3.36063 -21.86692,38.37609 21.47647,35.01546 30.39205,-40.81142 44.11908,-2.09592 13.72703,38.7155 -40.96303,-14.55926 -35.58538,26.16422 5.37766,40.72348 44.36402,-24.92152 41.15727,16.03013 -3.20674,40.95165 -31.49981,-29.96171 -43.15081,9.42833 -11.651,39.39004 50.66504,-4.72247 31.079,31.38442 -19.58605,36.1069 -16.58999,-40.18351 -43.25508,-8.9378 z"
       transform="matrix(0.41083545,0,0,0.4320076,95.465562,-38.294774)" />
    <path
       style="fill:#2a7fff;stroke:#0044aa;stroke-width:1.00157"
       id="path1846"
       d="m 214.99023,271.52061 c -68.02063,79.70542 33.71221,-73.15699 -62.15515,-30.85793 -95.867346,42.29907 85.62147,70.19704 -19.1049,66.71189 -104.726379,-3.48515 78.21566,-19.25537 -14.6274,-67.83445 -92.843058,-48.57907 -1.49814,110.7087 -64.069166,26.65736 -62.5710309,-84.05133 63.821126,49.14594 43.915072,-53.73024 -19.906049,-102.87619 -87.489615,67.85445 -60.788037,-33.4707 26.701579,-101.325151 1.367977,80.53935 69.388601,0.83392 68.02062,-79.70542 -107.59963044,-26.09557 -11.732279,-68.39463 95.867359,-42.299068 -62.115281,51.28499 42.611099,54.77013 104.72637,3.48514 -46.68493,-100.395104 46.15812,-51.81602 92.84306,48.57908 -78.82446,-16.588017 -16.25343,67.46331 62.57104,84.05133 49.38448,-99.095066 69.29052,3.78112 19.90605,102.87618 -36.17722,-71.96991 -62.87879,29.35524 -26.70157,101.32515 108.26636,-23.17442 40.24574,56.531 z"
       transform="matrix(0.41083545,0,0,0.4320076,-11.78362,56.430623)" />
    <path
       style="fill:#ab37c8;stroke:#bc5fd3;stroke-width:1.00157"
       id="path2228"
       d="m 192.41205,252.25239 c -6.79363,7.96067 26.84861,14.801 19.72758,22.4702 -7.12104,7.6692 -16.43292,-25.3744 -23.86886,-18.01013 -7.43594,7.36427 25.51593,16.99572 17.77813,24.04215 -7.7378,7.04643 -14.252,-26.66048 -22.27809,-19.94426 -8.02609,6.71622 24.00428,19.07124 15.70398,25.44547 -8.30029,6.37423 -11.97113,-27.75956 -20.53106,-21.7385 -8.55994,6.02106 22.32425,21.01298 13.51968,26.6703 -8.80456,5.65733 -9.60628,-28.66392 -18.64003,-23.38025 -9.03374,5.28366 20.48764,22.80733 11.24056,27.70806 -9.24708,4.90074 -7.17406,-29.36722 -16.61825,-24.85801 -9.44419,4.50921 18.50731,24.4417 8.88258,28.55148 -9.62473,4.10977 -4.69151,-29.86455 -14.4799,-26.16142 -9.78838,3.70313 16.39718,25.90464 6.46231,29.19462 -9.93487,3.28998 -2.17606,-30.15238 -12.23999,-27.28131 -10.06393,2.87107 14.17203,27.18586 3.9967,29.63298 -10.17533,2.44712 0.35466,-30.22872 -9.91422,-28.20984 -10.26888,2.01887 11.84747,28.2764 1.50306,29.86348 -10.34441,1.58709 2.88289,-30.09302 -7.51891,-28.94051 -10.4018,1.15252 9.43981,29.16861 -1.00113,29.88453 -10.44093,0.71592 5.3909,-29.74625 -5.07086,-29.46818 -10.46175,0.27807 6.96594,29.85621 -3.49829,29.69595 -10.46422,-0.16027 7.8611,-29.19083 -2.58724,-29.78915 -10.44833,-0.59832 4.4432,30.33439 -5.97091,29.29907 -10.41411,-1.03533 10.27615,-28.43065 -0.0855,-29.90117 -10.36162,-1.47052 1.88931,30.5998 -8.40165,28.69668 -10.29096,-1.90313 12.61912,-27.47106 2.41689,-29.80346 -10.20224,-2.33239 -0.67785,30.65058 -10.77346,27.89301 -10.09562,-2.75758 14.87358,-26.31877 4.9023,-29.49669 -9.97129,-3.17792 -3.24025,30.48636 -13.06971,26.89368 -9.82946,-3.59269 17.02372,-24.98188 7.35333,-28.98303 -9.670396,-4.00114 -5.77992,30.10831 -15.274277,25.70572 -9.494359,-4.4026 19.054447,-23.46976 9.752777,-28.26607 -9.301673,-4.79631 -8.279045,29.51906 -17.371706,24.33744 -9.092661,-5.18162 20.951516,-21.793 12.083812,-27.35084 -8.867701,-5.55784 -10.720096,28.72276 -19.347282,22.79846 -8.627185,-5.9243 22.701626,-19.9634 14.330093,-26.24377 -8.371534,-6.28038 -13.085959,27.72499 -21.187154,21.09956 -8.101196,-6.62543 24.292502,-17.99376 16.475857,-24.95262 -7.816646,-6.95886 -15.360032,26.53275 -22.878414,19.25267 -7.518382,-7.28008 25.712984,-15.89791 18.506055,-23.48644 -7.206929,-7.58854 -17.526366,25.1544 -24.409198,17.27073 -6.882833,-7.88367 26.953108,-13.69055 20.406447,-21.85553 -6.546661,-8.16498 -19.569764,23.59962 -25.768769,15.16765 -6.199005,-8.43196 28.004175,-11.38715 22.163702,-20.0713 -5.840473,-8.68416 -21.475895,21.87929 -26.947591,12.95818 -5.471695,-8.92111 28.858813,-9.00389 23.765495,-18.14631 -5.093319,-9.14241 -23.231389,20.0055 -27.937395,10.65782 -4.706006,-9.34768 29.511027,-6.55747 25.20059,-16.09402 -4.310438,-9.53655 -24.82393,17.99139 -28.731238,8.2827 -3.907307,-9.70869 29.956243,-4.06505 26.45892,-13.92884 -3.497322,-9.86379 -26.242349,15.85107 -29.323551,5.84948 -3.081202,-10.00159 30.191336,-1.54412 27.53166,-11.66597 -2.659676,-10.12184 -27.476697,13.59958 -29.710181,3.37524 -2.233484,-10.22434 30.21466,0.98764 28.411286,-9.32126 -1.803374,-10.30891 -28.518317,11.25269 -29.888416,0.87731 -1.3701,-10.37538 30.026048,3.51248 29.091626,-6.91117 -0.934422,-10.42366 -29.359899,8.82687 -29.857005,-1.62676 -0.497105,-10.45364 29.626827,6.01267 29.567911,-4.45262 -0.05892,-10.46528 -29.995545,6.33915 -29.616169,-4.11942 0.379376,-10.45858 29.019794,8.47069 29.836797,-1.96282 0.817003,-10.43351 -30.420792,3.80695 -29.167596,-6.5832 1.253196,-10.39014 28.209208,10.8693 29.8964,0.54075 1.687191,-10.32856 -30.63266,1.24805 -28.514434,-9.00079 2.118226,-10.24884 27.200755,13.19166 29.7463,3.04051 2.545546,-10.15115 -30.629661,-1.31959 -27.661262,-11.35524 2.968398,-10.03565 26.001508,15.4215 29.387552,5.51895 3.386044,-9.90254 -30.411818,-3.87799 -26.614069,-13.63005 3.79775,-9.75207 24.61988,17.54316 28.822672,7.95868 4.202792,-9.58447 -29.980657,-6.40918 -25.380195,-15.80926 4.600462,-9.40008 23.065559,19.54178 28.05562,10.34259 4.990061,-9.19918 -29.339204,-8.89542 -23.968298,-17.87757 5.370906,-8.98215 21.349452,21.40331 27.091779,12.65395 5.742328,-8.74936 -28.491957,-11.31927 -22.38828,-19.82049 6.103676,-8.50123 19.483592,23.11473 25.937909,14.87656 6.454316,-8.23817 -27.44486,-13.66372 -20.651226,-21.62439 6.793633,-7.96066 17.48107,24.66401 24.602103,16.99481 7.121032,-7.66919 -26.205257,-15.91232 -18.769318,-23.27659 7.435939,-7.36427 15.355931,26.04029 23.093731,18.99386 7.7378,-7.04643 -24.781842,-18.04932 -16.755756,-24.76553 8.026087,-6.71622 13.123081,27.23391 21.423373,20.85967 8.300293,-6.37423 -23.184601,-20.0597 -14.624664,-26.08076 8.559936,-6.02106 10.798181,28.23651 19.602745,22.57918 8.804562,-5.65732 -21.424736,-21.92939 -12.390992,-27.21305 9.033745,-5.28367 8.39754,29.04104 17.644614,24.14031 9.24708,-4.90074 -19.514588,-23.64526 -10.0704,-28.15447 9.44419,-4.50921 5.937996,29.64188 15.56273,25.53211 9.62473,-4.10978 -17.467571,-25.19527 -7.67918,-28.8984 9.78838,-3.70312 3.4368,30.03481 13.37167,26.74482 9.93487,-3.28998 -15.298021,-26.56855 -5.23409,-29.43962 10.06392,-2.87107 0.9115,30.21705 11.08682,27.76994 10.17533,-2.44712 -13.02116,-27.75548 -2.75229,-29.77435 10.26888,-2.01888 -1.62019,30.18734 8.72422,28.60026 10.34441,-1.58709 -10.65298,-28.74772 -0.25119,-29.90023 10.4018,-1.15252 -4.14052,29.9459 6.30041,29.22998 10.44094,-0.71592 -8.21007,-29.53832 2.25169,-29.81639 10.46175,-0.27807 -6.63181,29.49441 3.83241,29.65467 10.46422,0.16027 -5.70958,-30.12172 4.73876,-29.5234 10.44833,0.59832 -9.07659,28.83603 1.33753,29.87136 10.41411,1.03533 -3.16903,-30.49385 7.19259,-29.02333 10.36162,1.47052 -11.45769,27.97539 -1.16673,29.87852 10.29096,1.90312 -0.60626,-30.65208 9.59598,-28.31968 10.20223,2.33239 -13.75843,26.91852 -3.66281,29.6761 10.09561,2.75757 1.96077,-30.59531 11.93205,-27.41739 9.97128,3.17792 -15.96265,25.67284 -6.13319,29.26552 9.82946,3.59269 4.51404,-30.32393 14.18443,-26.32278 9.67039,4.00115 -18.05492,24.24708 -8.56056,28.64968 9.49436,4.40259 7.03565,-29.83986 16.33732,-25.04355 9.30167,4.79631 -20.02054,22.65125 -10.92788,27.83287 9.09266,5.18162 9.50791,-29.14648 18.37561,-23.58864 8.8677,5.55783 -21.84573,20.89653 -13.21855,26.82083 8.62719,5.9243 11.91348,-28.24865 20.28501,-21.96828 8.37154,6.28037 -23.51769,18.99524 -15.41649,25.62067 8.10119,6.62543 14.23548,-27.15269 22.05212,-20.19383 7.81665,6.95886 -25.02469,16.96071 -17.50631,24.24079 7.51838,7.28009 16.45764,-25.86626 23.66457,-18.27773 7.20693,7.58853 -26.35617,14.80722 -19.47334,22.69089 6.88284,7.88367 18.56435,-24.39841 25.11101,-16.23343 6.54667,8.16498 -27.50276,12.54986 -21.30376,20.98182 6.19901,8.43196 20.54085,-22.75942 26.38132,-14.07526 5.84048,8.68415 -28.45645,10.20447 -22.98476,19.12558 5.4717,8.92111 22.37327,-20.96078 27.46659,-11.81837 5.09332,9.14242 -29.21054,7.78751 -24.50454,17.1352 4.70601,9.34768 24.04876,-19.01513 28.35919,-9.47858 4.31044,9.53655 -29.75974,5.31592 -25.85243,15.02461 3.90731,9.70869 25.55556,-16.93608 29.05288,-7.07229 3.49732,9.86379 -30.10019,2.80704 -27.01899,12.80864 3.0812,10.00159 26.8831,-14.73826 29.54278,-4.61641 2.65968,10.12185 -30.22951,0.27848 -27.99603,10.50283 2.23348,10.22434 28.02209,-12.43705 29.82546,-2.12815 1.80338,10.30891 -30.1468,-2.25203 -28.7767,8.12335 1.3701,10.37538 28.96452,-10.0486 29.89894,0.37505 0.93442,10.42365 -29.85262,-4.76675 -29.35552,5.68689 0.49711,10.45363 29.70378,-7.58968 29.7627,2.87561 0.0589,10.46529 -29.34906,-7.24804 -29.72844,3.21053 -0.37937,10.45858 30.23469,-5.0775 29.41769,5.35601 -0.817,10.43351 -28.63962,-9.67849 -29.89282,0.71166 -1.25319,10.39015 30.55353,-2.52972 28.86634,7.79883 -1.68719,10.32856 -27.72931,-12.04104 -29.84753,-1.7922 -2.11823,10.24885 30.65805,0.0358 28.1125,10.18696 -2.54554,10.15115 -26.62448,-14.31915 -29.59288,-4.2835 -2.9684,10.03565 30.54753,2.60108 27.16149,12.50362 -3.38604,9.90255 -25.33291,-16.4968 -29.13066,-6.74473 -3.79775,9.75206 30.22274,5.1481 26.01995,14.73258 -4.20279,9.58448 -23.86365,-18.55875 -28.46411,-9.15868 -4.60046,9.40008 29.68597,7.65903 24.69591,16.85821 -4.99006,9.19918 -22.22701,-20.49052 -27.59791,-11.50837 -5.37091,8.98215 28.94097,10.11622 23.19864,18.86559 -5.74233,8.74936 -20.43445,-22.27857 -26.53812,-13.77735 -6.10368,8.50123 27.99296,12.50246 21.53864,20.74064 -6.45431,8.23817 -18.49856,-23.91035 -25.29219,-15.94968 z"
       transform="matrix(0.41083545,0,0,0.4320076,100.36144,55.40464)" />
    <path
       style="fill:#87deaa;stroke:#5fd38d;stroke-width:1.00157"
       id="path2658"
       d="m 214.99023,271.52061 c -10.67015,12.50309 -7.8174,-17.36138 -19.66168,-5.96435 -11.84429,11.39703 18.10783,9.69538 5.20348,19.87659 -12.90435,10.18121 -4.28015,-18.55288 -18.1203,-9.68555 -13.84015,8.86734 15.86843,13.04175 1.22577,20.50982 -14.64265,7.46807 -0.57842,-19.03141 -15.88256,-13.03454 -15.30415,5.99688 13.0192,15.88694 -2.79905,20.35487 -15.81825,4.46792 3.14554,-18.77858 -13.03448,-15.88262 -16.18001,2.89595 9.66966,18.12159 -6.7163,19.41768 -16.38595,1.29609 6.74862,-17.80409 -9.68547,-18.12034 -16.43409,-0.31625 5.9485,19.65985 -10.37545,17.73429 -16.32396,-1.92555 10.09234,-16.14539 -5.96427,-19.6617 -16.05662,-3.51631 1.99876,20.44258 -13.63588,15.36938 -15.634644,-5.0732 13.04823,-13.86625 -2.01386,-20.44748 -15.062098,-6.58123 -2.0278,20.43972 -16.372292,12.41384 -14.344492,-8.02589 15.502692,-11.05423 2.013943,-20.44748 -13.488746,-9.39324 -5.976424,19.65138 -18.479519,8.98124 -12.503095,-10.67015 17.361381,-7.8174 5.964349,-19.66168 -11.397032,-11.84428 -9.695382,18.10783 -19.876591,5.20348 -10.18121,-12.90435 18.552886,-4.28015 9.685549,-18.1203 -8.867336,-13.84014 -13.041752,15.86843 -20.509818,1.22578 -7.468067,-14.64266 19.031414,-0.57843 13.03454,-15.88257 -5.996875,-15.30415 -15.886935,13.0192 -20.354865,-2.79905 -4.46793,-15.81825 18.778576,3.14554 15.88262,-13.03447 -2.895956,-16.18002 -18.121592,9.66965 -19.417685,-6.71631 -1.296093,-16.38595 17.804088,6.74862 18.12034,-9.68547 0.316253,-16.43409 -19.659845,5.9485 -17.734293,-10.37545 1.925552,-16.32396 16.145398,10.09234 19.661705,-5.96427 3.516308,-16.05662 -20.442583,1.99876 -15.369384,-13.63588 5.073199,-15.63464 13.86625,13.04823 20.447482,-2.01386 6.581233,-15.0621 -20.439723,-2.0278 -12.413837,-16.37229 8.025886,-14.34449 11.054229,15.50269 20.447474,2.01394 9.393245,-13.48874 -19.651377,-5.97642 -8.981234,-18.47952 10.670142,-12.50309 7.817401,17.36138 19.661681,5.96435 11.844281,-11.39703 -18.107838,-9.69538 -5.203487,-19.87659 12.904351,-10.18121 4.280154,18.55289 18.120301,9.68555 13.840151,-8.86734 -15.868426,-13.04175 -1.225773,-20.50982 14.642654,-7.46807 0.578424,19.03142 15.882564,13.03454 15.30415,-5.99687 -13.019196,-15.88693 2.79905,-20.35486 15.81825,-4.46793 -3.14553,18.77857 13.03448,15.88262 16.18001,-2.89596 -9.66966,-18.12159 6.7163,-19.41769 16.38595,-1.29609 -6.74862,17.80409 9.68547,18.12034 16.43409,0.31625 -5.9485,-19.65984 10.37546,-17.73429 16.32395,1.92555 -10.09235,16.1454 5.96427,19.6617 16.05661,3.51631 -1.99877,-20.44258 13.63587,-15.36938 15.63464,5.0732 -13.04823,13.86625 2.01386,20.44748 15.0621,6.58124 2.0278,-20.43972 16.37229,-12.41384 14.34449,8.02589 -15.50269,11.05423 -2.01394,20.44748 13.48875,9.39324 5.97642,-19.65138 18.47952,-8.98124 12.50309,10.67015 -17.36138,7.81741 -5.96435,19.66169 11.39703,11.84428 9.69538,-18.10784 19.87659,-5.20349 10.18121,12.90435 -18.55289,4.28015 -9.68555,18.1203 8.86734,13.84015 13.04175,-15.86843 20.50982,-1.22577 7.46807,14.64265 -19.03141,0.57842 -13.03454,15.88256 5.99687,15.30415 15.88693,-13.0192 20.35486,2.79905 4.46793,15.81825 -18.77857,-3.14553 -15.88262,13.03448 2.89596,16.18001 18.1216,-9.66966 19.41769,6.7163 1.29609,16.38595 -17.80409,-6.74862 -18.12034,9.68547 -0.31625,16.43409 19.65984,-5.9485 17.73429,10.37546 -1.92555,16.32395 -16.1454,-10.09235 -19.6617,5.96427 -3.51631,16.05661 20.44258,-1.99876 15.36938,13.63588 -5.0732,15.63464 -13.86625,-13.04824 -20.44748,2.01385 -6.58123,15.0621 20.43972,2.0278 12.41384,16.37229 -8.02589,14.3445 -11.05423,-15.50269 -20.44748,-2.01394 -9.39324,13.48875 19.65138,5.97642 8.98124,18.47952 z"
       transform="matrix(0.41083545,0,0,0.4320076,-6.976283,158.39016)" />
    <path
       style="fill:#ff6600;stroke:#ff2a7f;stroke-width:1.00157"
       id="path3354"
       d="m 214.99023,271.52061 c -44.57756,52.23523 -8.43033,-59.61285 -76.88731,-54.19805 -68.456972,5.4148 -15.17538,110.18925 -67.410608,65.6117 -52.235231,-44.57756 59.612848,-8.43033 54.198048,-76.8873 -5.41479,-68.45698 -110.189251,-15.17539 -65.611696,-67.41062 44.577556,-52.235228 8.430324,59.61285 76.887306,54.19805 68.45697,-5.41479 15.17538,-110.189251 67.41061,-65.6117 52.23523,44.57756 -59.61285,8.43033 -54.19805,76.88731 5.41479,68.45697 110.18925,15.17538 65.6117,67.41061 z"
       transform="matrix(0.41083545,0,0,0.4320076,99.101637,158.45128)" />
  </g>
</svg>
